<svg width="56" height="56" viewBox="0 0 56 56" fill="none" xmlns="http://www.w3.org/2000/svg" xmlns:xlink="http://www.w3.org/1999/xlink">
<path d="M28.415,7.139C28.415,6.31 27.743,5.638 26.914,5.638C26.085,5.638 25.413,6.31 25.413,7.139L28.415,7.139ZM25.413,46.161C25.413,46.99 26.085,47.662 26.914,47.662C27.743,47.662 28.415,46.99 28.415,46.161L25.413,46.161ZM25.413,7.139L25.413,46.161L28.415,46.161L28.415,7.139L25.413,7.139Z" transform="rotate(85.913 26.914 26.65)" fill="#000000"/>
<path d="M7.485,25.061C6.656,25.061 5.984,25.733 5.984,26.562C5.984,27.391 6.656,28.063 7.485,28.063L7.485,25.061ZM46.507,28.063C47.336,28.063 48.008,27.391 48.008,26.562C48.008,25.733 47.336,25.061 46.507,25.061L46.507,28.063ZM7.485,28.063L46.507,28.063L46.507,25.061L7.485,25.061L7.485,28.063Z" transform="rotate(85.913 26.996 26.562)" fill="#000000"/>
</svg>
