<svg width="42" height="42" viewBox="0 0 42 42" fill="none" xmlns="http://www.w3.org/2000/svg" xmlns:xlink="http://www.w3.org/1999/xlink">
<path d="M21.564,6.722C21.564,6.17 21.116,5.722 20.564,5.722C20.011,5.722 19.564,6.17 19.564,6.722L21.564,6.722ZM19.564,35.431C19.564,35.984 20.011,36.431 20.564,36.431C21.116,36.431 21.564,35.984 21.564,35.431L19.564,35.431ZM19.564,6.722L19.564,35.431L21.564,35.431L21.564,6.722L19.564,6.722Z" transform="rotate(85.81 20.564 21.077)" fill="#000000"/>
<path d="M6.268,20.012C5.715,20.012 5.268,20.46 5.268,21.012C5.268,21.565 5.715,22.012 6.268,22.012L6.268,20.012ZM34.98,22.012C35.533,22.012 35.98,21.565 35.98,21.012C35.98,20.46 35.533,20.012 34.98,20.012L34.98,22.012ZM6.268,22.012L34.98,22.012L34.98,20.012L6.268,20.012L6.268,22.012Z" transform="rotate(85.81 20.624 21.012)" fill="#000000"/>
</svg>
