<svg width="42" height="42" viewBox="0 0 42 42" fill="none" xmlns="http://www.w3.org/2000/svg" xmlns:xlink="http://www.w3.org/1999/xlink">
<path d="M21.563,6.672C21.563,6.119 21.116,5.672 20.563,5.672C20.011,5.672 19.563,6.119 19.563,6.672L21.563,6.672ZM19.563,35.381C19.563,35.933 20.011,36.381 20.563,36.381C21.116,36.381 21.563,35.933 21.563,35.381L19.563,35.381ZM19.563,6.672L19.563,35.381L21.563,35.381L21.563,6.672L19.563,6.672Z" transform="rotate(85.81 20.563 21.026)" fill="#000000"/>
<path d="M6.267,19.962C5.715,19.962 5.267,20.409 5.267,20.962C5.267,21.514 5.715,21.962 6.267,21.962L6.267,19.962ZM34.98,21.962C35.532,21.962 35.98,21.514 35.98,20.962C35.98,20.409 35.532,19.962 34.98,19.962L34.98,21.962ZM6.267,21.962L34.98,21.962L34.98,19.962L6.267,19.962L6.267,21.962Z" transform="rotate(85.81 20.624 20.962)" fill="#000000"/>
</svg>
