<svg width="56" height="56" viewBox="0 0 56 56" fill="none" xmlns="http://www.w3.org/2000/svg" xmlns:xlink="http://www.w3.org/1999/xlink">
<path d="M28.415,7.19C28.415,6.361 27.743,5.689 26.914,5.689C26.085,5.689 25.413,6.361 25.413,7.19L28.415,7.19ZM25.413,46.212C25.413,47.041 26.085,47.713 26.914,47.713C27.743,47.713 28.415,47.041 28.415,46.212L25.413,46.212ZM25.413,7.19L25.413,46.212L28.415,46.212L28.415,7.19L25.413,7.19Z" transform="rotate(85.913 26.914 26.701)" fill="#000000"/>
<path d="M7.485,25.112C6.656,25.112 5.984,25.784 5.984,26.613C5.984,27.442 6.656,28.114 7.485,28.114L7.485,25.112ZM46.507,28.114C47.336,28.114 48.008,27.442 48.008,26.613C48.008,25.784 47.336,25.112 46.507,25.112L46.507,28.114ZM7.485,28.114L46.507,28.114L46.507,25.112L7.485,25.112L7.485,28.114Z" transform="rotate(85.913 26.996 26.613)" fill="#000000"/>
</svg>
