<svg width="38" height="38" viewBox="0 0 38 38" fill="none" xmlns="http://www.w3.org/2000/svg" xmlns:xlink="http://www.w3.org/1999/xlink">
<path d="M18.799,4.799C18.799,4.246 18.351,3.799 17.799,3.799C17.247,3.799 16.799,4.246 16.799,4.799L18.799,4.799ZM16.799,30.799C16.799,31.351 17.247,31.799 17.799,31.799C18.351,31.799 18.799,31.351 18.799,30.799L16.799,30.799ZM16.799,4.799L16.799,30.799L18.799,30.799L18.799,4.799L16.799,4.799Z" transform="rotate(90.408 17.799 17.799)" fill="#000000"/>
<path d="M4.856,16.742C4.303,16.742 3.856,17.19 3.856,17.742C3.856,18.294 4.303,18.742 4.856,18.742L4.856,16.742ZM30.856,18.742C31.408,18.742 31.856,18.294 31.856,17.742C31.856,17.19 31.408,16.742 30.856,16.742L30.856,18.742ZM4.856,18.742L30.856,18.742L30.856,16.742L4.856,16.742L4.856,18.742Z" transform="rotate(90.408 17.856 17.742)" fill="#000000"/>
</svg>
