<svg width="38" height="38" viewBox="0 0 38 38" fill="none" xmlns="http://www.w3.org/2000/svg" xmlns:xlink="http://www.w3.org/1999/xlink">
<path d="M18.799,4.849C18.799,4.297 18.351,3.849 17.799,3.849C17.247,3.849 16.799,4.297 16.799,4.849L18.799,4.849ZM16.799,30.849C16.799,31.402 17.247,31.849 17.799,31.849C18.351,31.849 18.799,31.402 18.799,30.849L16.799,30.849ZM16.799,4.849L16.799,30.849L18.799,30.849L18.799,4.849L16.799,4.849Z" transform="rotate(90.408 17.799 17.849)" fill="#000000"/>
<path d="M4.855,16.793C4.303,16.793 3.855,17.241 3.855,17.793C3.855,18.345 4.303,18.793 4.855,18.793L4.855,16.793ZM30.855,18.793C31.408,18.793 31.855,18.345 31.855,17.793C31.855,17.241 31.408,16.793 30.855,16.793L30.855,18.793ZM4.855,18.793L30.855,18.793L30.855,16.793L4.855,16.793L4.855,18.793Z" transform="rotate(90.408 17.855 17.793)" fill="#000000"/>
</svg>
