<svg width="42" height="42" viewBox="0 0 42 42" fill="none" xmlns="http://www.w3.org/2000/svg" xmlns:xlink="http://www.w3.org/1999/xlink">
<path d="M21.563,6.722C21.563,6.17 21.115,5.722 20.563,5.722C20.011,5.722 19.563,6.17 19.563,6.722L21.563,6.722ZM19.563,35.431C19.563,35.984 20.011,36.431 20.563,36.431C21.115,36.431 21.563,35.984 21.563,35.431L19.563,35.431ZM19.563,6.722L19.563,35.431L21.563,35.431L21.563,6.722L19.563,6.722Z" transform="rotate(85.81 20.563 21.077)" fill="#000000"/>
<path d="M6.267,20.012C5.715,20.012 5.267,20.46 5.267,21.012C5.267,21.565 5.715,22.012 6.267,22.012L6.267,20.012ZM34.98,22.012C35.532,22.012 35.98,21.565 35.98,21.012C35.98,20.46 35.532,20.012 34.98,20.012L34.98,22.012ZM6.267,22.012L34.98,22.012L34.98,20.012L6.267,20.012L6.267,22.012Z" transform="rotate(85.81 20.624 21.012)" fill="#000000"/>
</svg>
