<svg width="42" height="42" viewBox="0 0 42 42" fill="none" xmlns="http://www.w3.org/2000/svg" xmlns:xlink="http://www.w3.org/1999/xlink">
<path d="M20.002,0.051C8.973,0.051 0,9.022 0,20.048C0,31.083 8.972,40.051 20.002,40.051C31.033,40.051 40.005,31.083 40.005,20.048C40.005,9.022 31.033,0.051 20.002,0.051L20.002,0.051ZM20.002,37.064C10.62,37.064 2.986,29.435 2.986,20.048C2.986,10.666 10.621,3.037 20.002,3.037C29.388,3.037 37.014,10.671 37.014,20.048C37.014,29.434 29.388,37.064 20.002,37.064Z" fill="#FF8F67"/>
<path d="M21.002,18.602C18.291,17.481 17.138,16.67 17.138,15.053C17.138,13.81 18.043,12.373 20.439,12.373C22.434,12.373 23.709,13.058 24.362,13.432L25.141,11.378C24.24,10.846 22.961,10.347 21.096,10.288L21.097,7.266L19.16,7.266L19.16,10.414C16.295,10.878 14.462,12.842 14.462,15.427C14.462,18.138 16.426,19.571 19.601,20.814C21.903,21.751 23.119,22.805 23.119,24.521C23.119,26.295 21.623,27.575 19.412,27.575C17.669,27.575 16.047,26.98 14.926,26.232L14.179,28.318C15.269,29.101 17.138,29.66 18.944,29.696L18.944,32.835L20.907,32.835L20.908,29.597C24.11,29.07 25.826,26.759 25.826,24.304C25.826,21.53 24.209,19.913 21.002,18.602L21.002,18.602Z" fill="#FF8F67"/>
</svg>
