<svg width="42" height="40" viewBox="0 0 42 40" fill="none" xmlns="http://www.w3.org/2000/svg" xmlns:xlink="http://www.w3.org/1999/xlink">
<path d="M20.002,0C8.973,0 0,8.972 0,19.998C0,31.032 8.972,40 20.002,40C31.033,40 40.005,31.032 40.005,19.998C40.005,8.972 31.033,0 20.002,0L20.002,0ZM20.002,37.014C10.62,37.014 2.986,29.384 2.986,19.998C2.986,10.616 10.621,2.986 20.002,2.986C29.388,2.986 37.014,10.621 37.014,19.998C37.014,29.384 29.388,37.014 20.002,37.014Z" fill="#FF8F67"/>
<path d="M21.002,18.552C18.291,17.43 17.138,16.62 17.138,15.003C17.138,13.76 18.043,12.323 20.439,12.323C22.434,12.323 23.709,13.007 24.362,13.381L25.141,11.328C24.24,10.796 22.961,10.296 21.096,10.238L21.097,7.215L19.16,7.215L19.16,10.364C16.295,10.828 14.462,12.791 14.462,15.377C14.462,18.088 16.426,19.52 19.601,20.763C21.903,21.7 23.119,22.754 23.119,24.47C23.119,26.245 21.623,27.524 19.412,27.524C17.669,27.524 16.047,26.93 14.926,26.182L14.179,28.267C15.269,29.051 17.138,29.609 18.944,29.645L18.944,32.785L20.907,32.785L20.908,29.546C24.11,29.019 25.826,26.708 25.826,24.254C25.826,21.479 24.209,19.863 21.002,18.552L21.002,18.552Z" fill="#FF8F67"/>
</svg>
