<svg width="40" height="40" viewBox="0 0 40 40" fill="none" xmlns="http://www.w3.org/2000/svg" xmlns:xlink="http://www.w3.org/1999/xlink">
<path d="M32.667,3.95L30.556,3.95L30.556,1.95C30.556,1.419 30.333,0.911 29.937,0.535C29.541,0.16 29.004,-0.05 28.444,-0.05C27.885,-0.05 27.348,0.16 26.952,0.535C26.556,0.911 26.333,1.419 26.333,1.95L26.333,3.95L13.667,3.95L13.667,1.95C13.667,1.419 13.444,0.911 13.048,0.535C12.652,0.16 12.115,-0.05 11.556,-0.05C10.996,-0.05 10.459,0.16 10.063,0.535C9.667,0.911 9.444,1.419 9.444,1.95L9.444,3.95L7.333,3.95C5.654,3.95 4.043,4.582 2.855,5.707C1.667,6.832 1,8.358 1,9.95L1,33.95C1,35.541 1.667,37.067 2.855,38.192C4.043,39.318 5.654,39.95 7.333,39.95L32.667,39.95C34.346,39.95 35.957,39.318 37.145,38.192C38.333,37.067 39,35.541 39,33.95L39,9.95C39,8.358 38.333,6.832 37.145,5.707C35.957,4.582 34.346,3.95 32.667,3.95L32.667,3.95ZM11.556,29.95C11.138,29.95 10.73,29.833 10.383,29.613C10.036,29.393 9.765,29.081 9.605,28.715C9.445,28.35 9.404,27.948 9.485,27.56C9.566,27.172 9.768,26.815 10.063,26.536C10.358,26.256 10.734,26.065 11.144,25.988C11.553,25.911 11.978,25.951 12.363,26.102C12.749,26.253 13.079,26.51 13.311,26.839C13.543,27.168 13.667,27.554 13.667,27.95C13.667,28.48 13.444,28.989 13.048,29.364C12.652,29.739 12.115,29.95 11.556,29.95L11.556,29.95ZM28.444,29.95L20,29.95C19.44,29.95 18.903,29.739 18.507,29.364C18.111,28.989 17.889,28.48 17.889,27.95C17.889,27.419 18.111,26.911 18.507,26.536C18.903,26.161 19.44,25.95 20,25.95L28.444,25.95C29.004,25.95 29.541,26.161 29.937,26.536C30.333,26.911 30.556,27.419 30.556,27.95C30.556,28.48 30.333,28.989 29.937,29.364C29.541,29.739 29.004,29.95 28.444,29.95ZM34.778,17.95L5.222,17.95L5.222,9.95C5.222,9.419 5.445,8.911 5.841,8.535C6.236,8.16 6.773,7.95 7.333,7.95L9.444,7.95L9.444,9.95C9.444,10.48 9.667,10.989 10.063,11.364C10.459,11.739 10.996,11.95 11.556,11.95C12.115,11.95 12.652,11.739 13.048,11.364C13.444,10.989 13.667,10.48 13.667,9.95L13.667,7.95L26.333,7.95L26.333,9.95C26.333,10.48 26.556,10.989 26.952,11.364C27.348,11.739 27.885,11.95 28.444,11.95C29.004,11.95 29.541,11.739 29.937,11.364C30.333,10.989 30.556,10.48 30.556,9.95L30.556,7.95L32.667,7.95C33.227,7.95 33.764,8.16 34.159,8.535C34.555,8.911 34.778,9.419 34.778,9.95L34.778,17.95Z" fill="#FFFEFE"/>
</svg>
