<svg width="40" height="40" viewBox="0 0 40 40" fill="none" xmlns="http://www.w3.org/2000/svg" xmlns:xlink="http://www.w3.org/1999/xlink">
<path d="M32.667,4L30.556,4L30.556,2C30.556,1.47 30.333,0.961 29.937,0.586C29.541,0.211 29.004,0 28.444,0C27.885,0 27.348,0.211 26.952,0.586C26.556,0.961 26.333,1.47 26.333,2L26.333,4L13.667,4L13.667,2C13.667,1.47 13.444,0.961 13.048,0.586C12.652,0.211 12.115,0 11.556,0C10.996,0 10.459,0.211 10.063,0.586C9.667,0.961 9.444,1.47 9.444,2L9.444,4L7.333,4C5.654,4 4.043,4.632 2.855,5.757C1.667,6.883 1,8.409 1,10L1,34C1,35.591 1.667,37.118 2.855,38.243C4.043,39.368 5.654,40 7.333,40L32.667,40C34.346,40 35.957,39.368 37.145,38.243C38.333,37.118 39,35.591 39,34L39,10C39,8.409 38.333,6.883 37.145,5.757C35.957,4.632 34.346,4 32.667,4ZM11.556,30C11.138,30 10.73,29.883 10.383,29.663C10.036,29.443 9.765,29.131 9.605,28.766C9.445,28.4 9.404,27.998 9.485,27.61C9.566,27.222 9.768,26.866 10.063,26.586C10.358,26.306 10.734,26.116 11.144,26.039C11.553,25.961 11.978,26.001 12.363,26.152C12.749,26.304 13.079,26.56 13.311,26.889C13.543,27.218 13.667,27.605 13.667,28C13.667,28.531 13.444,29.039 13.048,29.414C12.652,29.789 12.115,30 11.556,30ZM28.444,30L20,30C19.44,30 18.903,29.789 18.507,29.414C18.111,29.039 17.889,28.531 17.889,28C17.889,27.47 18.111,26.961 18.507,26.586C18.903,26.211 19.44,26 20,26L28.444,26C29.004,26 29.541,26.211 29.937,26.586C30.333,26.961 30.556,27.47 30.556,28C30.556,28.531 30.333,29.039 29.937,29.414C29.541,29.789 29.004,30 28.444,30ZM34.778,18L5.222,18L5.222,10C5.222,9.47 5.445,8.961 5.841,8.586C6.236,8.211 6.773,8 7.333,8L9.444,8L9.444,10C9.444,10.531 9.667,11.039 10.063,11.414C10.459,11.789 10.996,12 11.556,12C12.115,12 12.652,11.789 13.048,11.414C13.444,11.039 13.667,10.531 13.667,10L13.667,8L26.333,8L26.333,10C26.333,10.531 26.556,11.039 26.952,11.414C27.348,11.789 27.885,12 28.444,12C29.004,12 29.541,11.789 29.937,11.414C30.333,11.039 30.556,10.531 30.556,10L30.556,8L32.667,8C33.227,8 33.764,8.211 34.159,8.586C34.555,8.961 34.778,9.47 34.778,10L34.778,18Z" fill="#FFFEFE"/>
</svg>
