<svg width="38" height="40" viewBox="0 0 38 40" fill="none" xmlns="http://www.w3.org/2000/svg" xmlns:xlink="http://www.w3.org/1999/xlink">
<path d="M30.667,4L28.556,4L28.556,2C28.556,1.47 28.333,0.961 27.937,0.586C27.541,0.211 27.004,0 26.444,0C25.885,0 25.348,0.211 24.952,0.586C24.556,0.961 24.333,1.47 24.333,2L24.333,4L11.667,4L11.667,2C11.667,1.47 11.444,0.961 11.048,0.586C10.652,0.211 10.115,0 9.556,0C8.996,0 8.459,0.211 8.063,0.586C7.667,0.961 7.444,1.47 7.444,2L7.444,4L5.333,4C3.654,4 2.043,4.632 0.855,5.757C-0.333,6.883 -1,8.409 -1,10L-1,34C-1,35.591 -0.333,37.118 0.855,38.243C2.043,39.368 3.654,40 5.333,40L30.667,40C32.346,40 33.957,39.368 35.145,38.243C36.333,37.118 37,35.591 37,34L37,10C37,8.409 36.333,6.883 35.145,5.757C33.957,4.632 32.346,4 30.667,4L30.667,4ZM9.556,30C9.138,30 8.73,29.883 8.383,29.663C8.036,29.443 7.765,29.131 7.605,28.766C7.445,28.4 7.404,27.998 7.485,27.61C7.566,27.222 7.768,26.866 8.063,26.586C8.358,26.306 8.734,26.116 9.144,26.039C9.553,25.961 9.978,26.001 10.363,26.152C10.749,26.304 11.079,26.56 11.311,26.889C11.543,27.218 11.667,27.605 11.667,28C11.667,28.531 11.444,29.039 11.048,29.414C10.652,29.789 10.115,30 9.556,30L9.556,30ZM26.444,30L18,30C17.44,30 16.903,29.789 16.507,29.414C16.111,29.039 15.889,28.531 15.889,28C15.889,27.47 16.111,26.961 16.507,26.586C16.903,26.211 17.44,26 18,26L26.444,26C27.004,26 27.541,26.211 27.937,26.586C28.333,26.961 28.556,27.47 28.556,28C28.556,28.531 28.333,29.039 27.937,29.414C27.541,29.789 27.004,30 26.444,30ZM32.778,18L3.222,18L3.222,10C3.222,9.47 3.445,8.961 3.841,8.586C4.236,8.211 4.773,8 5.333,8L7.444,8L7.444,10C7.444,10.531 7.667,11.039 8.063,11.414C8.459,11.789 8.996,12 9.556,12C10.115,12 10.652,11.789 11.048,11.414C11.444,11.039 11.667,10.531 11.667,10L11.667,8L24.333,8L24.333,10C24.333,10.531 24.556,11.039 24.952,11.414C25.348,11.789 25.885,12 26.444,12C27.004,12 27.541,11.789 27.937,11.414C28.333,11.039 28.556,10.531 28.556,10L28.556,8L30.667,8C31.227,8 31.764,8.211 32.159,8.586C32.555,8.961 32.778,9.47 32.778,10L32.778,18Z" fill="#FFFEFE"/>
</svg>
