<svg width="40" height="42" viewBox="0 0 40 42" fill="none" xmlns="http://www.w3.org/2000/svg" xmlns:xlink="http://www.w3.org/1999/xlink">
<path d="M26,10.051C26,5.632 22.418,2.051 18,2.051C13.582,2.051 10,5.632 10,10.051C10,14.469 13.582,18.051 18,18.051C22.418,18.051 26,14.469 26,10.051Z" fill="#FF6934"/>
<path d="M24,18.051C22.471,19.207 20.053,20.051 18,20.051C15.907,20.051 13.544,19.248 12,18.051C2.204,20.409 1.821,28.519 2.017,36.009C2.049,37.247 2.745,38.051 4,38.051L22,38.051L22,32.051C22,30.013 22.614,28.051 26,28.051L33,28.051C33,22.051 29,18.051 24,18.051Z" fill="#FF6934"/>
<path d="M26,33.051C25.448,33.051 25,33.498 25,34.051C25,34.603 25.448,35.051 26,35.051L26,33.051ZM38,34.051L38.707,34.758C39.098,34.367 39.098,33.734 38.707,33.343L38,34.051ZM35.707,30.343C35.317,29.953 34.683,29.953 34.293,30.343C33.902,30.734 33.902,31.367 34.293,31.758L35.707,30.343ZM34.293,36.343C33.902,36.734 33.902,37.367 34.293,37.758C34.683,38.148 35.317,38.148 35.707,37.758L34.293,36.343ZM26,35.051L38,35.051L38,33.051L26,33.051L26,35.051ZM38.707,33.343L35.707,30.343L34.293,31.758L37.293,34.758L38.707,33.343ZM37.293,33.343L34.293,36.343L35.707,37.758L38.707,34.758L37.293,33.343Z" fill="#FF6934"/>
</svg>
