<svg width="40" height="40" viewBox="0 0 40 40" fill="none" xmlns="http://www.w3.org/2000/svg" xmlns:xlink="http://www.w3.org/1999/xlink">
<path d="M26,10C26,5.581 22.418,2 18,2C13.582,2 10,5.581 10,10C10,14.419 13.582,18 18,18C22.418,18 26,14.419 26,10Z" fill="#FF6934"/>
<path d="M24,18C22.471,19.157 20.053,20 18,20C15.907,20 13.544,19.197 12,18C2.204,20.358 1.821,28.468 2.017,35.958C2.049,37.197 2.745,38 4,38L22,38L22,32C22,29.963 22.614,28 26,28L33,28C33,22 29,18 24,18Z" fill="#FF6934"/>
<path d="M26,33C25.448,33 25,33.448 25,34C25,34.552 25.448,35 26,35L26,33ZM38,34L38.707,34.707C39.098,34.317 39.098,33.683 38.707,33.293L38,34ZM35.707,30.293C35.317,29.902 34.683,29.902 34.293,30.293C33.902,30.683 33.902,31.317 34.293,31.707L35.707,30.293ZM34.293,36.293C33.902,36.683 33.902,37.317 34.293,37.707C34.683,38.098 35.317,38.098 35.707,37.707L34.293,36.293ZM26,35L38,35L38,33L26,33L26,35ZM38.707,33.293L35.707,30.293L34.293,31.707L37.293,34.707L38.707,33.293ZM37.293,33.293L34.293,36.293L35.707,37.707L38.707,34.707L37.293,33.293Z" fill="#FF6934"/>
</svg>
