<svg width="40" height="40" viewBox="0 0 40 40" fill="none" xmlns="http://www.w3.org/2000/svg" xmlns:xlink="http://www.w3.org/1999/xlink">
<path d="M36.665,26.072L35.826,26.072C38.138,26.072 40,27.899 40,30.153L40,30.972C40,31.879 39.254,32.603 38.332,32.603L1.668,32.603C0.746,32.603 0,31.872 0,30.972L0,30.153C0,27.9 1.869,26.072 4.174,26.072L3.335,26.072C4.251,26.072 5,25.341 5,24.438L5,14.644C5,6.525 11.716,-0.05 20,-0.05C28.287,-0.05 35.001,6.528 35.001,14.644L35.001,24.438C35.001,25.346 35.746,26.072 36.665,26.072L36.665,26.072ZM14.166,34.236L25.833,34.236C25.833,37.391 23.221,39.95 19.999,39.95C16.778,39.95 14.166,37.391 14.166,34.236L14.166,34.236Z" clip-rule="evenodd" fill-rule="evenodd" fill="#FFFEFE"/>
<circle cx="33" cy="6.95" r="5" fill="#FF6934" stroke="#262D34" stroke-width="1" stroke-miterlimit="3.999327"/>
</svg>
