<svg width="40" height="40" viewBox="0 0 40 40" fill="none" xmlns="http://www.w3.org/2000/svg" xmlns:xlink="http://www.w3.org/1999/xlink">
<path d="M36.665,26.123L35.826,26.123C38.138,26.123 40,27.949 40,30.203L40,31.022C40,31.93 39.254,32.653 38.332,32.653L1.668,32.653C0.746,32.653 0,31.923 0,31.022L0,30.203C0,27.95 1.869,26.123 4.174,26.123L3.335,26.123C4.251,26.123 5,25.391 5,24.488L5,14.694C5,6.575 11.716,0 20,0C28.287,0 35.001,6.579 35.001,14.694L35.001,24.488C35.001,25.397 35.746,26.123 36.665,26.123L36.665,26.123ZM14.166,34.286L25.833,34.286C25.833,37.442 23.221,40 19.999,40C16.778,40 14.166,37.442 14.166,34.286L14.166,34.286Z" clip-rule="evenodd" fill-rule="evenodd" fill="#F4F6F8"/>
<circle cx="33" cy="7" r="5" fill="#FF6934" stroke="#262D34" stroke-width="1" stroke-miterlimit="3.999327"/>
</svg>
