<svg width="40" height="40" viewBox="0 0 40 40" fill="none" xmlns="http://www.w3.org/2000/svg" xmlns:xlink="http://www.w3.org/1999/xlink">
<path d="M37.412,17.135L37.412,16.65C37.412,14.66 35.718,12.961 33.506,12.475C32.753,5.485 26.965,0 20,0C13.035,0 7.247,5.485 6.494,12.475C4.235,12.961 2.588,14.66 2.588,16.65L2.588,17.135C1.13,17.427 0,18.883 0,20.582C0,22.33 1.13,23.737 2.588,24.029L2.588,24.515C2.588,26.893 4.941,28.835 7.859,28.835L8.941,28.835L8.941,13.786C9.035,7.621 13.977,2.621 20,2.621C26.07,2.621 31.059,7.719 31.059,14.029L31.059,28.835L32.141,28.835C35.012,28.835 37.412,26.893 37.412,24.515L37.412,24.029C38.87,23.738 40,22.282 40,20.582C40,18.834 38.87,17.427 37.412,17.135L37.412,17.135Z" fill="#F4F6F8"/>
<path d="M28.089,22C27.242,22 26.583,22.68 26.583,23.554C26.583,27.292 23.618,30.349 19.995,30.349C16.371,30.349 13.407,27.291 13.407,23.554C13.407,22.68 12.748,22 11.901,22C11.054,22 10.395,22.68 10.395,23.554C10.395,28.505 13.924,32.68 18.677,33.359L18.677,38.689C18.677,39.417 19.241,40 19.948,40C20.653,40 21.218,39.369 21.218,38.689L21.218,33.311C25.971,32.631 29.548,28.505 29.548,23.505C29.595,22.68 28.936,22 28.089,22Z" fill="#F4F6F8"/>
<path d="M19.998,27.369C17.504,27.369 15.48,25.282 15.48,22.709L15.48,12.66C15.48,10.088 17.504,8 19.998,8C22.492,8 24.516,10.087 24.516,12.66L24.516,22.709C24.516,25.282 22.492,27.369 19.998,27.369L19.998,27.369Z" fill="#F4F6F8"/>
</svg>
