<svg width="40" height="40" viewBox="0 0 40 40" fill="none" xmlns="http://www.w3.org/2000/svg" xmlns:xlink="http://www.w3.org/1999/xlink">
<path d="M32,30C32,33.314 26.627,36 20,36C13.373,36 8,33.314 8,30C8,26.686 13.373,24 20,24C26.627,24 32,26.686 32,30Z" fill="#F4F6F8"/>
<circle cx="20" cy="12" r="8" fill="#F4F6F8"/>
<path d="M10.5,6.936C8.408,8.147 7,10.409 7,13C7,15.591 8.408,17.853 10.5,19.064C9.47,19.659 8.275,20 7,20C3.134,20 0,16.866 0,13C0,9.134 3.134,6 7,6C8.275,6 9.47,6.341 10.5,6.936Z" clip-rule="evenodd" fill-rule="evenodd" fill="#F4F6F8"/>
<path d="M40,6.936C37.908,8.147 36.5,10.409 36.5,13C36.5,15.591 37.908,17.853 40,19.064C38.97,19.659 37.775,20 36.5,20C32.634,20 29.5,16.866 29.5,13C29.5,9.134 32.634,6 36.5,6C37.775,6 38.97,6.341 40,6.936Z" clip-rule="evenodd" fill-rule="evenodd" transform="rotate(360 34.75 13)" fill="#F4F6F8"/>
<path d="M40,24C40,24 40,24 40,24C37.238,24 35,26.239 35,29C35,30.126 35.372,31.164 35.999,32C33.238,32 31,29.761 31,27C31,24.239 33.238,22 36,22C37.635,22 39.088,22.786 40,24Z" clip-rule="evenodd" fill-rule="evenodd" transform="rotate(360 35.5 27)" fill="#F4F6F8"/>
<path d="M9,24C9,24 9,24 9,24C6.239,24 4,26.239 4,29C4,30.126 4.372,31.164 5,32C2.238,32 0,29.761 0,27C0,24.239 2.239,22 5,22C6.636,22 8.088,22.786 9,24Z" clip-rule="evenodd" fill-rule="evenodd" fill="#F4F6F8"/>
<circle cx="33" cy="7" r="5" fill="#FF6934" stroke="#262D34" stroke-width="1" stroke-miterlimit="3.999327"/>
</svg>
