<svg width="38" height="44" viewBox="0 0 38 44" fill="none" xmlns="http://www.w3.org/2000/svg" xmlns:xlink="http://www.w3.org/1999/xlink">
<path d="M7.117,28.017C6.79,28.017 6.521,27.925 6.313,27.741C6.104,27.557 6,27.32 6,27.031L6,0.987C6,0.697 6.104,0.46 6.313,0.276C6.521,0.092 6.79,0 7.117,0L12.838,0C13.166,0 13.434,0.092 13.642,0.276C13.851,0.46 13.955,0.697 13.955,0.987L13.955,9.786C14.76,8.971 15.743,8.326 16.905,7.853C18.097,7.353 19.467,7.103 21.017,7.103C22.745,7.103 24.279,7.445 25.62,8.129C26.991,8.813 28.063,9.826 28.838,11.167C29.613,12.483 30,14.101 30,16.021L30,27.031C30,27.32 29.896,27.557 29.687,27.741C29.479,27.925 29.21,28.017 28.883,28.017L23.117,28.017C22.819,28.017 22.551,27.925 22.313,27.741C22.104,27.557 22,27.32 22,27.031L22,16.258C22,15.021 21.657,14.074 20.972,13.417C20.317,12.733 19.333,12.391 18.022,12.391C16.801,12.391 15.817,12.733 15.073,13.417C14.328,14.074 13.955,15.021 13.955,16.258L13.955,27.031C13.955,27.32 13.851,27.557 13.642,27.741C13.434,27.925 13.166,28.017 12.838,28.017L7.117,28.017Z" fill="#1E252B"/>
<path d="M36.082,35.18C37.275,34.03 37.31,32.131 36.16,30.938C35.009,29.745 33.11,29.711 31.918,30.861L36.082,35.18ZM4.082,30.861C2.89,29.711 0.99,29.745 -0.16,30.938C-1.31,32.131 -1.275,34.03 -0.082,35.18L4.082,30.861ZM31.918,30.861C29.747,32.954 27.768,34.458 25.63,35.456C23.521,36.441 21.111,37 18,37L18,43C21.889,43 25.178,42.288 28.168,40.893C31.129,39.511 33.651,37.524 36.082,35.18L31.918,30.861ZM18,37C12.42,37 7.88,34.523 4.082,30.861L-0.082,35.18C4.479,39.578 10.435,43 18,43L18,37Z" fill="#1E252B"/>
</svg>
