<svg width="54" height="54" viewBox="0 0 54 54" fill="none" xmlns="http://www.w3.org/2000/svg" xmlns:xlink="http://www.w3.org/1999/xlink">
<path d="M16.974,24.452C16.027,23.505 14.493,23.505 13.546,24.452C12.6,25.398 12.6,26.933 13.546,27.879L16.974,24.452ZM22.531,33.436L20.817,35.15C21.763,36.096 23.298,36.096 24.244,35.15L22.531,33.436ZM38.786,20.608C39.732,19.662 39.732,18.127 38.786,17.181C37.839,16.235 36.305,16.235 35.358,17.181L38.786,20.608ZM47.978,26.165C47.978,38.212 38.212,47.977 26.166,47.977L26.166,52.825C40.889,52.825 52.825,40.889 52.825,26.165L47.978,26.165ZM26.166,47.977C14.119,47.977 4.354,38.212 4.354,26.165L-0.493,26.165C-0.493,40.889 11.442,52.825 26.166,52.825L26.166,47.977ZM4.354,26.165C4.354,14.119 14.119,4.353 26.166,4.353L26.166,-0.494C11.442,-0.494 -0.493,11.442 -0.493,26.165L4.354,26.165ZM26.166,4.353C38.212,4.353 47.978,14.119 47.978,26.165L52.825,26.165C52.825,11.442 40.889,-0.494 26.166,-0.494L26.166,4.353ZM13.546,27.879L20.817,35.15L24.244,31.722L16.974,24.452L13.546,27.879ZM24.244,35.15L38.786,20.608L35.358,17.181L20.817,31.722L24.244,35.15Z" fill="#039855"/>
</svg>
