<svg width="52" height="48" viewBox="0 0 52 48" fill="none" xmlns="http://www.w3.org/2000/svg" xmlns:xlink="http://www.w3.org/1999/xlink">
<path d="M50.136,3.288C51.123,2.385 51.192,0.852 50.288,-0.136C49.385,-1.124 47.852,-1.192 46.864,-0.288L50.136,3.288ZM-0.136,42.712C-1.123,43.615 -1.192,45.148 -0.288,46.136C0.615,47.124 2.148,47.192 3.136,46.288L-0.136,42.712ZM3.136,-0.288C2.148,-1.192 0.615,-1.124 -0.288,-0.136C-1.192,0.852 -1.123,2.385 -0.136,3.288L3.136,-0.288ZM46.864,46.288C47.852,47.192 49.385,47.124 50.288,46.136C51.192,45.148 51.123,43.615 50.136,42.712L46.864,46.288ZM46.864,-0.288L-0.136,42.712L3.136,46.288L50.136,3.288L46.864,-0.288ZM-0.136,3.288L46.864,46.288L50.136,42.712L3.136,-0.288L-0.136,3.288Z" fill="#667085"/>
</svg>
