<svg width="54" height="54" viewBox="0 0 54 54" fill="none" xmlns="http://www.w3.org/2000/svg" xmlns:xlink="http://www.w3.org/1999/xlink">
<path d="M16.973,24.452C16.027,23.506 14.492,23.506 13.546,24.452C12.599,25.398 12.599,26.933 13.546,27.879L16.973,24.452ZM22.53,33.436L20.817,35.15C21.763,36.097 23.298,36.097 24.244,35.15L22.53,33.436ZM38.786,20.609C39.732,19.662 39.732,18.128 38.786,17.181C37.839,16.235 36.305,16.235 35.358,17.181L38.786,20.609ZM47.978,26.166C47.978,38.212 38.212,47.978 26.166,47.978L26.166,52.825C40.889,52.825 52.825,40.889 52.825,26.166L47.978,26.166ZM26.166,47.978C14.119,47.978 4.354,38.212 4.354,26.166L-0.494,26.166C-0.494,40.889 11.442,52.825 26.166,52.825L26.166,47.978ZM4.354,26.166C4.354,14.119 14.119,4.354 26.166,4.354L26.166,-0.494C11.442,-0.494 -0.494,11.442 -0.494,26.166L4.354,26.166ZM26.166,4.354C38.212,4.354 47.978,14.119 47.978,26.166L52.825,26.166C52.825,11.442 40.889,-0.494 26.166,-0.494L26.166,4.354ZM13.546,27.879L20.817,35.15L24.244,31.723L16.973,24.452L13.546,27.879ZM24.244,35.15L38.786,20.609L35.358,17.181L20.817,31.723L24.244,35.15Z" fill="#039855"/>
</svg>
