<svg width="36" height="38" viewBox="0 0 36 38" fill="none" xmlns="http://www.w3.org/2000/svg" xmlns:xlink="http://www.w3.org/1999/xlink">
<path d="M16.321,0.645C17.109,-0.573 18.891,-0.573 19.679,0.645L21.443,3.372C21.958,4.166 22.959,4.492 23.842,4.151L26.872,2.982C28.226,2.46 29.667,3.508 29.589,4.956L29.414,8.199C29.363,9.144 29.982,9.996 30.896,10.24L34.035,11.075C35.436,11.448 35.987,13.143 35.072,14.269L33.025,16.789C32.428,17.524 32.428,18.577 33.025,19.312L35.072,21.832C35.987,22.958 35.436,24.653 34.035,25.026L30.896,25.862C29.982,26.105 29.363,26.957 29.414,27.902L29.589,31.145C29.667,32.593 28.226,33.641 26.872,33.119L23.842,31.95C22.959,31.609 21.958,31.935 21.443,32.73L19.679,35.456C18.891,36.674 17.109,36.674 16.321,35.456L14.557,32.73C14.042,31.935 13.041,31.609 12.158,31.95L9.128,33.119C7.774,33.641 6.333,32.593 6.411,31.145L6.586,27.902C6.637,26.957 6.018,26.105 5.104,25.862L1.965,25.026C0.564,24.653 0.013,22.958 0.928,21.832L2.975,19.312C3.572,18.577 3.572,17.524 2.975,16.789L0.928,14.269C0.013,13.143 0.564,11.448 1.965,11.075L5.104,10.24C6.018,9.996 6.637,9.144 6.586,8.199L6.411,4.956C6.333,3.508 7.774,2.46 9.128,2.982L12.158,4.151C13.041,4.492 14.042,4.166 14.557,3.372L16.321,0.645Z" fill="#0ECC8D"/>
</svg>
