<svg width="36" height="38" viewBox="0 0 36 38" fill="none" xmlns="http://www.w3.org/2000/svg" xmlns:xlink="http://www.w3.org/1999/xlink">
<path d="M16.321,0.595C17.109,-0.623 18.891,-0.623 19.679,0.595L21.443,3.321C21.958,4.116 22.959,4.441 23.842,4.1L26.872,2.932C28.226,2.41 29.667,3.457 29.589,4.906L29.414,8.149C29.363,9.094 29.982,9.945 30.896,10.189L34.035,11.025C35.436,11.398 35.987,13.092 35.072,14.218L33.025,16.739C32.428,17.474 32.428,18.526 33.025,19.261L35.072,21.782C35.987,22.908 35.436,24.602 34.035,24.975L30.896,25.811C29.982,26.055 29.363,26.906 29.414,27.851L29.589,31.094C29.667,32.543 28.226,33.59 26.872,33.068L23.842,31.9C22.959,31.559 21.958,31.884 21.443,32.679L19.679,35.405C18.891,36.623 17.109,36.623 16.321,35.405L14.557,32.679C14.042,31.884 13.041,31.559 12.158,31.9L9.128,33.068C7.774,33.59 6.333,32.543 6.411,31.094L6.586,27.851C6.637,26.906 6.018,26.055 5.104,25.811L1.965,24.975C0.564,24.602 0.013,22.908 0.928,21.782L2.975,19.261C3.572,18.526 3.572,17.474 2.975,16.739L0.928,14.218C0.013,13.092 0.564,11.398 1.965,11.025L5.104,10.189C6.018,9.945 6.637,9.094 6.586,8.149L6.411,4.906C6.333,3.457 7.774,2.41 9.128,2.932L12.158,4.1C13.041,4.441 14.042,4.116 14.557,3.321L16.321,0.595Z" fill="#0ECC8D"/>
</svg>
