<svg width="40" height="36" viewBox="0 0 40 36" fill="none" xmlns="http://www.w3.org/2000/svg" xmlns:xlink="http://www.w3.org/1999/xlink">
<path d="M8.569,0.573C1.164,2.839 -1.476,10.498 0.783,17.198C4.417,27.943 20.003,36 20.003,36C20.003,36 35.704,27.819 39.22,17.198C41.478,10.498 38.82,2.839 31.415,0.573C27.524,-0.613 23.066,0.147 20.003,2.397C16.764,0.083 12.465,-0.621 8.569,0.573ZM27.515,6.547C26.712,6.341 25.895,6.826 25.69,7.628C25.484,8.431 25.968,9.248 26.771,9.453C29.536,10.161 31.175,12.018 31.365,13.867C31.449,14.691 32.186,15.291 33.01,15.206C33.834,15.122 34.434,14.385 34.349,13.561C33.996,10.121 31.129,7.472 27.515,6.547Z" clip-rule="evenodd" fill-rule="evenodd" fill="#C5D0E6"/>
</svg>
