<svg width="40" height="24" viewBox="0 0 40 24" fill="none" xmlns="http://www.w3.org/2000/svg" xmlns:xlink="http://www.w3.org/1999/xlink">
<path d="M35.446,0.051C33.189,0.051 31.343,1.775 31.015,4.016L24.246,4.016L24.246,0.051L15.22,0.051L15.22,4.016L8.944,4.016C8.574,1.775 6.728,0.051 4.513,0.051C2.01,0.051 0,2.163 0,4.792C0,7.422 2.01,9.534 4.513,9.534C6.4,9.534 8,8.327 8.697,6.603L11.282,6.603C6.892,9.361 4,15.051 5.538,22.051L8,22.051C7,15.051 10.093,9.232 15.221,7.551L15.221,9.534L24.246,9.534L24.246,7.551C29.374,9.232 34,15.051 32,22.051L34.462,22.051C36,14.051 32.574,9.361 28.226,6.602L31.303,6.602C32,8.326 33.6,9.533 35.487,9.533C37.99,9.533 40,7.421 40,4.792C40,2.163 37.948,0.051 35.446,0.051Z" fill="#5D95E8"/>
</svg>
