<svg width="40" height="32" viewBox="0 0 40 32" fill="none" xmlns="http://www.w3.org/2000/svg" xmlns:xlink="http://www.w3.org/1999/xlink">
<path d="M6.727,22.73C6.862,22.665 6.986,22.579 7.092,22.473L24.64,5.048C25.312,4.384 25.691,3.481 25.691,2.538C25.691,1.596 25.313,0.693 24.641,0.029C23.978,-0.606 23.091,-0.957 22.17,-0.949C21.249,-0.942 20.368,-0.575 19.716,0.07L2.125,17.54C2.019,17.646 1.931,17.769 1.867,17.903L1.583,18.498L0.006,24.341C-0.011,24.407 0.008,24.478 0.057,24.527C0.106,24.576 0.178,24.595 0.245,24.577L6.129,23.012L6.727,22.73ZM4.221,22.337C4.179,22.379 4.13,22.413 4.076,22.439L3.839,22.55L1.507,23.171L1.378,23.205L1.413,23.077L2.038,20.761L2.149,20.526L2.149,20.526C2.175,20.472 2.21,20.424 2.252,20.382L2.315,20.319L4.284,22.274L4.221,22.337ZM20.71,2.476L22.261,4.017L6.574,19.595L5.023,18.054L20.71,2.476Z" fill="#EA942C"/>
<path d="M38.88,28.648C37.939,28.398 36.994,28.087 36.014,27.765C33.881,27.064 31.674,26.34 29.184,26.145C25.536,25.859 19.958,26.19 16.333,27.59L16.333,27.59C16.043,27.71 15.769,27.848 15.515,28.003L15.474,28.026C15.129,27.891 14.8,27.736 14.455,27.572C13.505,27.074 12.431,26.708 11.288,26.492C8.421,26.01 4.893,26.311 2.535,27.873C2.141,28.137 1.947,28.517 2.012,28.897C2.078,29.278 2.394,29.614 2.865,29.804L2.942,29.835C3.263,29.963 3.632,30.015 3.997,29.985C4.363,29.955 4.705,29.844 4.975,29.667C6.405,28.754 8.687,28.604 10.475,28.905L10.474,28.905C11.208,29.056 11.895,29.304 12.501,29.633C12.998,29.877 13.516,30.1 14.051,30.3C14.059,30.304 14.067,30.307 14.073,30.309C14.337,30.473 14.658,30.585 15.003,30.634C15.348,30.682 15.705,30.665 16.038,30.585L16.167,30.563L16.167,30.563C16.751,30.439 17.287,30.221 17.732,29.927C17.829,29.871 17.973,29.788 18.033,29.76C20.831,28.685 25.663,28.364 28.797,28.609C30.714,28.759 32.568,29.369 34.531,30.014C35.545,30.347 36.582,30.687 37.661,30.974L37.661,30.974C38.116,31.094 38.623,31.072 39.054,30.914C39.486,30.756 39.803,30.476 39.926,30.144L39.945,30.092C40.052,29.801 40.002,29.493 39.806,29.226C39.609,28.959 39.279,28.753 38.88,28.648L38.88,28.648Z" fill="#EA942C"/>
</svg>
