<svg width="40" height="34" viewBox="0 0 40 34" fill="none" xmlns="http://www.w3.org/2000/svg" xmlns:xlink="http://www.w3.org/1999/xlink">
<path d="M6.727,24.679C6.862,24.615 6.986,24.528 7.092,24.423L24.64,6.997C25.312,6.333 25.691,5.43 25.691,4.488C25.691,3.546 25.313,2.643 24.641,1.978C23.978,1.344 23.091,0.992 22.17,1C21.249,1.008 20.368,1.374 19.716,2.02L2.125,19.49C2.019,19.595 1.931,19.718 1.867,19.853L1.583,20.447L0.006,26.29C-0.011,26.357 0.008,26.428 0.057,26.476C0.106,26.525 0.178,26.544 0.245,26.527L6.129,24.961L6.727,24.679ZM4.221,24.286C4.179,24.328 4.13,24.362 4.076,24.388L3.839,24.499L1.507,25.12L1.378,25.155L1.413,25.027L2.038,22.711L2.149,22.475L2.149,22.475C2.175,22.422 2.21,22.373 2.252,22.331L2.315,22.269L4.284,24.224L4.221,24.286ZM20.71,4.426L22.261,5.966L6.574,21.544L5.023,20.004L20.71,4.426Z" fill="#EA942C"/>
<path d="M38.88,30.598C37.939,30.347 36.994,30.037 36.014,29.715C33.881,29.014 31.674,28.289 29.184,28.094C25.536,27.809 19.958,28.139 16.333,29.539L16.333,29.539C16.043,29.659 15.769,29.797 15.515,29.952L15.474,29.975C15.129,29.841 14.8,29.685 14.455,29.522C13.505,29.024 12.431,28.657 11.288,28.442C8.421,27.96 4.893,28.261 2.535,29.823C2.141,30.087 1.947,30.466 2.012,30.847C2.078,31.227 2.394,31.563 2.865,31.753L2.942,31.784C3.263,31.912 3.632,31.964 3.997,31.934C4.363,31.904 4.705,31.793 4.975,31.617C6.405,30.704 8.687,30.554 10.475,30.854L10.474,30.854C11.208,31.006 11.895,31.253 12.501,31.583C12.998,31.827 13.516,32.049 14.051,32.25C14.059,32.253 14.067,32.256 14.073,32.258C14.337,32.423 14.658,32.534 15.003,32.583C15.348,32.632 15.705,32.615 16.038,32.534L16.167,32.512L16.167,32.512C16.751,32.388 17.287,32.17 17.732,31.876C17.829,31.821 17.973,31.738 18.033,31.71C20.831,30.634 25.663,30.314 28.797,30.559C30.714,30.709 32.568,31.318 34.531,31.963C35.545,32.296 36.582,32.637 37.661,32.923L37.661,32.923C38.116,33.043 38.623,33.022 39.054,32.864C39.486,32.705 39.803,32.426 39.926,32.094L39.945,32.042C40.052,31.751 40.002,31.442 39.806,31.175C39.609,30.909 39.279,30.703 38.88,30.598L38.88,30.598Z" fill="#EA942C"/>
</svg>
