<svg width="40" height="40" viewBox="0 0 40 40" fill="none" xmlns="http://www.w3.org/2000/svg" xmlns:xlink="http://www.w3.org/1999/xlink">
<path d="M21.39,40C10.147,40 1,31.028 1,20C1,8.972 10.147,0 21.39,0C27.517,0 33.264,2.667 37.155,7.316C37.911,8.219 38.075,9.259 37.155,10C36.507,10.523 35.363,10.434 35,10C31.93,6.333 27,3 21.389,3C12.523,3 4,11.304 4,20C4,28.696 12.523,37 21.389,37C26.958,37 33.035,33.005 36,28.371C36.633,27.382 37.471,27.385 37.99,27.705C39.073,28.371 39.303,29.631 38.67,30.62C34.911,36.494 28.451,40 21.39,40Z" fill="#3ED6A4"/>
<path d="M17,10L31,19.436L17,28L17,10Z" fill="#3ED6A4"/>
</svg>
