<svg width="36" height="42" viewBox="0 0 36 42" fill="none" xmlns="http://www.w3.org/2000/svg" xmlns:xlink="http://www.w3.org/1999/xlink">
<path d="M34.646,0.051L25.351,0.051C24.59,0.051 23.998,0.64 23.998,1.398C23.998,2.156 24.632,2.787 25.393,2.787L31.392,2.787L15.337,18.787L12.041,15.503C11.492,14.955 10.647,14.955 10.098,15.503L3.295,22.282C2.915,21.145 2.746,19.924 2.746,18.703C2.746,12.261 8.027,6.998 14.492,6.998C16.9,6.998 19.182,7.713 21.041,8.976L22.985,7.04C20.576,5.313 17.661,4.261 14.492,4.261C6.507,4.261 0,10.745 0,18.702C0,26.661 6.464,33.103 14.45,33.103C17.957,33.103 21.168,31.84 23.661,29.777L33.547,39.629C33.801,39.882 34.181,40.051 34.519,40.051C34.857,40.051 35.237,39.924 35.491,39.629C36.04,39.082 36.04,38.24 35.491,37.692L25.604,27.882C27.674,25.398 28.942,22.156 28.942,18.703C28.942,17.061 28.646,15.461 28.139,13.988L25.942,16.177C26.111,16.977 26.238,17.819 26.238,18.661C26.238,25.103 20.956,30.366 14.492,30.366C10.309,30.366 6.591,28.135 4.521,24.851C4.563,24.809 4.605,24.809 4.647,24.766L11.027,18.409L14.323,21.693C14.872,22.24 15.717,22.24 16.266,21.693L33.294,4.725L33.294,10.703C33.294,11.461 33.885,12.051 34.646,12.051C35.406,12.051 35.998,11.462 35.998,10.703L35.998,1.44C36.04,0.64 35.406,0.051 34.646,0.051L34.646,0.051Z" fill="#848DF9"/>
</svg>
