<svg width="38" height="42" viewBox="0 0 38 42" fill="none" xmlns="http://www.w3.org/2000/svg" xmlns:xlink="http://www.w3.org/1999/xlink">
<path d="M19.39,40.051C8.147,40.051 -1,31.079 -1,20.051C-1,9.023 8.147,0.051 19.39,0.051C25.517,0.051 31.264,2.717 35.155,7.367C35.911,8.269 36.075,9.309 35.155,10.051C34.507,10.573 33.363,10.485 33,10.051C29.93,6.383 25,3.051 19.389,3.051C10.523,3.051 2,11.355 2,20.051C2,28.747 10.523,37.051 19.389,37.051C24.958,37.051 31.035,33.055 34,28.422C34.633,27.433 35.471,27.436 35.99,27.755C37.073,28.422 37.303,29.681 36.67,30.67C32.911,36.544 26.451,40.051 19.39,40.051Z" fill="#3ED6A4"/>
<path d="M15,10.051L29,19.487L15,28.051L15,10.051Z" fill="#3ED6A4"/>
</svg>
