<svg width="36" height="40" viewBox="0 0 36 40" fill="none" xmlns="http://www.w3.org/2000/svg" xmlns:xlink="http://www.w3.org/1999/xlink">
<path d="M19.084,11.262C17.039,12.391 14.994,13.521 12.949,14.652C10.33,16.101 8.284,17.238 6.814,18.064C5,17.523 3.483,16.548 2.263,15.136L2.005,15.294C1.817,15.399 1.614,15.425 1.395,15.373C1.176,15.32 1.004,15.204 0.879,15.024L0.105,13.74C-0.005,13.56 -0.028,13.357 0.034,13.132C0.097,12.907 0.222,12.734 0.409,12.614L0.668,12.479C-0.161,10.407 -0.181,8.301 0.609,6.161C1.399,4.022 2.818,2.389 4.867,1.263C6.947,0.122 9.137,-0.246 11.436,0.159C13.735,0.565 15.62,1.631 17.09,3.358L17.348,3.2C17.567,3.095 17.786,3.076 18.005,3.144C18.224,3.211 18.396,3.335 18.521,3.515L19.272,4.799C19.381,4.979 19.409,5.174 19.354,5.384C19.299,5.595 19.178,5.76 18.991,5.88L18.685,6.038C19.342,7.704 19.475,9.446 19.084,11.262L19.084,11.262ZM25.02,36.689C25.599,37.755 26.322,38.574 27.19,39.144C28.058,39.715 28.993,40 29.994,40C31.745,40 33.188,39.448 34.322,38.345C35.456,37.241 36.015,35.871 36,34.234C36,33.709 35.957,33.183 35.871,32.658C35.785,32.133 35.695,31.69 35.601,31.329C35.507,30.969 35.362,30.56 35.167,30.102C34.971,29.644 34.827,29.321 34.733,29.133C34.639,28.946 34.483,28.653 34.264,28.255C34.045,27.857 33.927,27.636 33.912,27.591C33.568,26.96 33.212,26.532 32.844,26.307C32.477,26.082 32.176,26.029 31.941,26.149C31.784,26.224 31.675,26.367 31.612,26.577C31.55,26.787 31.558,27.061 31.636,27.399C31.714,27.737 31.863,28.094 32.082,28.469C32.535,29.22 32.985,30.207 33.431,31.431C33.876,32.654 34.099,33.649 34.099,34.415C34.099,35.391 33.673,36.239 32.821,36.96C31.968,37.68 30.987,38.041 29.876,38.041C28.969,38.041 27.999,37.23 26.967,35.608L27.155,35.496C27.577,35.255 27.89,35.034 28.093,34.831C28.297,34.629 28.422,34.362 28.469,34.032C28.516,33.702 28.422,33.326 28.187,32.906L19.319,13.425L15.495,15.542L17.442,18.762C17.536,18.912 17.556,19.081 17.501,19.269C17.446,19.457 17.34,19.595 17.184,19.686L16.269,20.181L15.354,20.677C15.182,20.782 15.006,20.808 14.826,20.755C14.646,20.703 14.502,20.594 14.392,20.429L12.468,17.231L8.644,19.348L21.782,36.464C22.22,37.02 22.666,37.324 23.12,37.376C23.573,37.429 24.082,37.275 24.645,36.915L25.02,36.689L25.02,36.689Z" fill="#F4F6F8"/>
</svg>
