<svg width="28" height="24" viewBox="0 0 28 24" fill="none" xmlns="http://www.w3.org/2000/svg" xmlns:xlink="http://www.w3.org/1999/xlink">
<path d="M2,10C0.895,10 0,10.895 0,12C0,13.105 0.895,14 2,14L2,10ZM26,12L27.462,13.365C28.179,12.596 28.179,11.404 27.462,10.635L26,12ZM18.129,0.635C17.375,-0.172 16.11,-0.216 15.302,0.538C14.495,1.292 14.451,2.557 15.205,3.365L18.129,0.635ZM15.205,20.635C14.451,21.443 14.495,22.708 15.302,23.462C16.11,24.216 17.375,24.172 18.129,23.365L15.205,20.635ZM2,14L26,14L26,10L2,10L2,14ZM27.462,10.635L18.129,0.635L15.205,3.365L24.538,13.365L27.462,10.635ZM24.538,10.635L15.205,20.635L18.129,23.365L27.462,13.365L24.538,10.635Z" fill="#97989D"/>
</svg>
