<svg width="40" height="28" viewBox="0 0 40 28" fill="none" xmlns="http://www.w3.org/2000/svg" xmlns:xlink="http://www.w3.org/1999/xlink">
<path d="M13.443,22.901L18,27.781C18.452,28.252 19.28,27.909 19.28,27.268L19.28,22.944L22.898,22.943C24.871,22.943 26.475,21.274 26.475,19.22L26.475,3.723C26.475,1.669 24.872,0 22.898,0L3.577,0C1.603,0 0,1.669 0,3.723L0,19.178C0,21.232 1.603,22.901 3.577,22.901L13.443,22.901ZM8.222,8.858L11.428,8.601L12.662,5.478C12.908,4.879 13.69,4.879 13.895,5.478L15.129,8.601L18.335,8.858C18.952,8.901 19.199,9.671 18.705,10.099L16.238,12.281L17.02,15.534C17.184,16.133 16.526,16.646 15.992,16.304L13.237,14.549L10.483,16.304C9.948,16.646 9.332,16.133 9.455,15.534L10.236,12.281L7.77,10.099C7.358,9.714 7.605,8.901 8.222,8.858ZM31.12,6.205C30.216,6.205 29.476,5.435 29.476,4.493C29.476,3.552 30.216,2.782 31.12,2.782L38.356,2.782C39.26,2.782 40,3.552 40,4.493C40,5.435 39.26,6.205 38.356,6.205L31.12,6.205ZM29.517,11.298C29.517,10.356 30.257,9.586 31.161,9.586L36.506,9.586C37.41,9.586 38.15,10.356 38.15,11.298C38.15,12.239 37.41,13.009 36.506,13.009L31.12,13.009C30.216,13.009 29.517,12.239 29.517,11.298ZM29.517,18.102C29.517,17.16 30.257,16.39 31.161,16.39L34.409,16.39C35.314,16.39 36.053,17.16 36.053,18.102C36.053,19.043 35.314,19.813 34.409,19.813L31.12,19.813C30.216,19.813 29.517,19.043 29.517,18.102Z" fill="#EEA956"/>
</svg>
