<svg width="40" height="40" viewBox="0 0 40 40" fill="none" xmlns="http://www.w3.org/2000/svg" xmlns:xlink="http://www.w3.org/1999/xlink">
<path d="M39.952,18.309C39.58,12.784 36.789,7.624 32.37,4.199C27.952,0.773 22.184,-0.642 16.602,0.271C6.649,1.961 -0.654,11.002 0.044,20.957C0.37,25.752 2.416,30.182 5.858,33.561C4.974,34.84 4.184,35.662 2.091,37.306C1.672,37.626 1.486,38.128 1.626,38.63C1.719,39.132 2.091,39.543 2.556,39.68C3.253,39.909 4.277,40 5.439,40C7.904,40 11.021,39.452 13.439,38.219C16.649,39.315 20.09,39.589 23.486,38.995C33.44,37.26 40.649,28.173 39.951,18.309L39.952,18.309ZM10.696,23.195C8.882,23.195 7.44,21.78 7.44,19.999C7.44,18.218 8.882,16.802 10.696,16.802C12.51,16.802 13.951,18.218 13.951,19.999C13.951,21.78 12.51,23.195 10.696,23.195ZM19.998,23.195C18.184,23.195 16.742,21.78 16.742,19.999C16.742,18.218 18.184,16.802 19.998,16.802C21.812,16.802 23.254,18.218 23.254,19.999C23.254,21.78 21.812,23.195 19.998,23.195ZM29.3,23.195C27.486,23.195 26.045,21.78 26.045,19.999C26.045,18.218 27.486,16.802 29.3,16.802C31.114,16.802 32.556,18.218 32.556,19.999C32.556,21.78 31.114,23.195 29.3,23.195Z" fill="#F4F6F8"/>
</svg>
