<svg width="40" height="22" viewBox="0 0 40 22" fill="none" xmlns="http://www.w3.org/2000/svg" xmlns:xlink="http://www.w3.org/1999/xlink">
<path d="M35.446,0C33.189,0 31.343,1.724 31.015,3.966L24.246,3.966L24.246,0L15.22,0L15.22,3.966L8.944,3.966C8.574,1.725 6.728,0 4.513,0C2.01,0 0,2.113 0,4.742C0,7.371 2.01,9.483 4.513,9.483C6.4,9.483 8,8.277 8.697,6.553L11.282,6.553C6.892,9.311 4,15 5.538,22L8,22C7,15 10.093,9.181 15.221,7.5L15.221,9.483L24.246,9.483L24.246,7.5C29.374,9.181 34,15 32,22L34.462,22C36,14 32.574,9.31 28.226,6.552L31.303,6.552C32,8.276 33.6,9.483 35.487,9.483C37.99,9.483 40,7.371 40,4.741C40,2.112 37.948,0 35.446,0Z" fill="#5D95E8"/>
</svg>
