<svg width="40" height="40" viewBox="0 0 40 40" fill="none" xmlns="http://www.w3.org/2000/svg" xmlns:xlink="http://www.w3.org/1999/xlink">
<path d="M39.952,18.259C39.58,12.733 36.789,7.573 32.37,4.148C27.952,0.723 22.184,-0.692 16.602,0.221C6.649,1.911 -0.654,10.952 0.044,20.907C0.37,25.702 2.416,30.132 5.858,33.511C4.974,34.79 4.184,35.612 2.091,37.256C1.672,37.575 1.486,38.077 1.626,38.58C1.719,39.082 2.091,39.493 2.556,39.63C3.253,39.858 4.277,39.95 5.439,39.95C7.904,39.95 11.021,39.402 13.439,38.169C16.649,39.265 20.09,39.539 23.486,38.945C33.44,37.21 40.649,28.122 39.951,18.259L39.952,18.259ZM10.696,23.145C8.882,23.145 7.44,21.729 7.44,19.948C7.44,18.167 8.882,16.752 10.696,16.752C12.51,16.752 13.951,18.167 13.951,19.948C13.951,21.729 12.51,23.145 10.696,23.145ZM19.998,23.145C18.184,23.145 16.742,21.729 16.742,19.948C16.742,18.167 18.184,16.752 19.998,16.752C21.812,16.752 23.254,18.167 23.254,19.948C23.254,21.729 21.812,23.145 19.998,23.145ZM29.3,23.145C27.486,23.145 26.045,21.729 26.045,19.948C26.045,18.167 27.486,16.752 29.3,16.752C31.114,16.752 32.556,18.167 32.556,19.948C32.556,21.729 31.114,23.145 29.3,23.145Z" fill="#FFFEFE"/>
</svg>
