<svg width="36" height="40" viewBox="0 0 36 40" fill="none" xmlns="http://www.w3.org/2000/svg" xmlns:xlink="http://www.w3.org/1999/xlink">
<path d="M34.646,0L25.351,0C24.59,0 23.998,0.589 23.998,1.347C23.998,2.105 24.632,2.737 25.393,2.737L31.392,2.737L15.337,18.736L12.041,15.452C11.492,14.905 10.647,14.905 10.098,15.452L3.295,22.231C2.915,21.094 2.746,19.873 2.746,18.652C2.746,12.21 8.027,6.947 14.492,6.947C16.9,6.947 19.182,7.663 21.041,8.926L22.985,6.989C20.576,5.263 17.661,4.21 14.492,4.21C6.507,4.21 0,10.694 0,18.652C0,26.61 6.464,33.052 14.45,33.052C17.957,33.052 21.168,31.789 23.661,29.726L33.547,39.579C33.801,39.831 34.181,40 34.519,40C34.857,40 35.237,39.874 35.491,39.579C36.04,39.031 36.04,38.189 35.491,37.642L25.604,27.831C27.674,25.347 28.942,22.105 28.942,18.653C28.942,17.011 28.646,15.411 28.139,13.937L25.942,16.127C26.111,16.927 26.238,17.769 26.238,18.611C26.238,25.053 20.956,30.316 14.492,30.316C10.309,30.316 6.591,28.084 4.521,24.8C4.563,24.758 4.605,24.758 4.647,24.716L11.027,18.358L14.323,21.642C14.872,22.19 15.717,22.19 16.266,21.642L33.294,4.674L33.294,10.653C33.294,11.411 33.885,12 34.646,12C35.406,12 35.998,11.411 35.998,10.653L35.998,1.39C36.04,0.59 35.406,0 34.646,0L34.646,0Z" fill="#848DF9"/>
</svg>
