<svg width="40" height="30" viewBox="0 0 40 30" fill="none" xmlns="http://www.w3.org/2000/svg" xmlns:xlink="http://www.w3.org/1999/xlink">
<path d="M13.443,22.951L18,27.832C18.452,28.302 19.28,27.96 19.28,27.318L19.28,22.994L22.898,22.994C24.871,22.994 26.475,21.325 26.475,19.271L26.475,3.773C26.475,1.719 24.872,0.051 22.898,0.051L3.577,0.051C1.603,0.051 0,1.719 0,3.773L0,19.228C0,21.282 1.603,22.951 3.577,22.951L13.443,22.951ZM8.222,8.909L11.428,8.652L12.662,5.528C12.908,4.929 13.69,4.929 13.895,5.528L15.129,8.652L18.335,8.909C18.952,8.951 19.199,9.722 18.705,10.15L16.238,12.332L17.02,15.584C17.184,16.183 16.526,16.697 15.992,16.354L13.237,14.6L10.483,16.354C9.949,16.697 9.332,16.183 9.455,15.584L10.236,12.332L7.77,10.15C7.358,9.764 7.605,8.952 8.222,8.909ZM31.12,6.256C30.216,6.256 29.476,5.485 29.476,4.544C29.476,3.603 30.216,2.832 31.12,2.832L38.356,2.832C39.26,2.832 40,3.603 40,4.544C40,5.485 39.26,6.256 38.356,6.256L31.12,6.256ZM29.517,11.348C29.517,10.407 30.257,9.636 31.161,9.636L36.506,9.636C37.41,9.636 38.15,10.407 38.15,11.348C38.15,12.29 37.41,13.06 36.506,13.06L31.12,13.06C30.216,13.06 29.517,12.29 29.517,11.348ZM29.517,18.152C29.517,17.211 30.257,16.441 31.161,16.441L34.409,16.441C35.314,16.441 36.053,17.211 36.053,18.152C36.053,19.094 35.314,19.864 34.409,19.864L31.12,19.864C30.216,19.864 29.517,19.094 29.517,18.152Z" fill="#EEA956"/>
</svg>
