<svg width="40" height="42" viewBox="0 0 40 42" fill="none" xmlns="http://www.w3.org/2000/svg" xmlns:xlink="http://www.w3.org/1999/xlink">
<path d="M21.39,40.051C10.147,40.051 1,31.079 1,20.051C1,9.023 10.147,0.051 21.39,0.051C27.517,0.051 33.264,2.717 37.155,7.367C37.911,8.269 38.075,9.309 37.155,10.051C36.507,10.573 35.363,10.485 35,10.051C31.93,6.383 27,3.051 21.389,3.051C12.523,3.051 4,11.355 4,20.051C4,28.747 12.523,37.051 21.389,37.051C26.958,37.051 33.035,33.055 36,28.422C36.633,27.433 37.471,27.436 37.99,27.755C39.073,28.422 39.303,29.681 38.67,30.67C34.911,36.544 28.451,40.051 21.39,40.051Z" fill="#3ED6A4"/>
<path d="M17,10.051L31,19.487L17,28.051L17,10.051Z" fill="#3ED6A4"/>
</svg>
