<svg width="40" height="40" viewBox="0 0 40 40" fill="none" xmlns="http://www.w3.org/2000/svg" xmlns:xlink="http://www.w3.org/1999/xlink">
<path d="M38.688,14.989L21.76,0.629C21.278,0.192 20.651,-0.05 20,-0.05C19.349,-0.05 18.722,0.192 18.24,0.629L1.313,14.99C0.9,15.364 0.57,15.821 0.344,16.331C0.118,16.84 0.001,17.392 0.001,17.95L0.001,38.621C0.001,38.974 0.141,39.311 0.39,39.561C0.639,39.81 0.977,39.95 1.329,39.95L12.001,39.95C13.105,39.95 14.001,39.054 14.001,37.95L14.001,29.95C14.001,28.822 15.105,27.907 16.233,27.907L23.766,27.907C24.895,27.907 26.001,28.822 26.001,29.95L26.001,37.95C26.001,39.054 26.896,39.95 28.001,39.95L38.672,39.95C39.025,39.95 39.363,39.81 39.612,39.561C39.861,39.311 40.001,38.974 40.001,38.621L40.001,17.95C40.001,17.392 39.884,16.84 39.658,16.331C39.432,15.821 39.101,15.364 38.688,14.989Z" fill="#FFFFFF"/>
</svg>
