<svg width="28" height="26" viewBox="0 0 28 26" fill="none" xmlns="http://www.w3.org/2000/svg" xmlns:xlink="http://www.w3.org/1999/xlink">
<path d="M2,10.051C0.895,10.051 0,10.946 0,12.051C0,13.155 0.895,14.051 2,14.051L2,10.051ZM26,12.051L27.462,13.415C28.179,12.647 28.179,11.454 27.462,10.686L26,12.051ZM18.129,0.686C17.375,-0.122 16.11,-0.165 15.302,0.588C14.495,1.342 14.451,2.608 15.205,3.415L18.129,0.686ZM15.205,20.686C14.451,21.493 14.495,22.759 15.302,23.513C16.11,24.266 17.375,24.223 18.129,23.415L15.205,20.686ZM2,14.051L26,14.051L26,10.051L2,10.051L2,14.051ZM27.462,10.686L18.129,0.686L15.205,3.415L24.538,13.415L27.462,10.686ZM24.538,10.686L15.205,20.686L18.129,23.415L27.462,13.415L24.538,10.686Z" fill="#090303"/>
</svg>
