<svg width="40" height="40" viewBox="0 0 40 40" fill="none" xmlns="http://www.w3.org/2000/svg" xmlns:xlink="http://www.w3.org/1999/xlink">
<path d="M38.688,15.04L21.76,0.679C21.278,0.242 20.651,0 20,0C19.349,0 18.722,0.242 18.24,0.679L1.313,15.04C0.9,15.414 0.57,15.871 0.344,16.381C0.118,16.891 0.001,17.442 0.001,18L0.001,38.671C0.001,39.024 0.141,39.362 0.39,39.611C0.639,39.86 0.977,40 1.329,40L12.001,40C13.105,40 14.001,39.105 14.001,38L14.001,30C14.001,28.872 15.105,27.958 16.233,27.958L23.766,27.958C24.895,27.958 26.001,28.872 26.001,30L26.001,38C26.001,39.105 26.896,40 28.001,40L38.672,40C39.025,40 39.363,39.86 39.612,39.611C39.861,39.362 40.001,39.024 40.001,38.671L40.001,18C40.001,17.442 39.884,16.891 39.658,16.381C39.432,15.871 39.101,15.414 38.688,15.04Z" fill="#FFFFFF"/>
</svg>
